<svg class="bthumb" viewBox="41.8 10.2 316.3 129.6" fill="none" aria-hidden="true" preserveAspectRatio="xMidYMid meet"><rect x="168" y="26" width="64" height="98" rx="7" fill="var(--glass3)" stroke="var(--gold)" stroke-width="1.6"></rect><rect x="194.0" y="30" width="12" height="2.6" rx="1.3" fill="var(--gold)" opacity=".7"></rect><path d="M200 53.85q4.59 7.5600000000000005 12.15 4.59q-7.5600000000000005 4.59 -12.15 12.15q-4.59-7.5600000000000005 -12.15-4.59q7.5600000000000005-4.59 12.15-12.15z" fill="var(--gold)"></path><rect x="180" y="92" width="40" height="4" rx="2" fill="var(--line2)" opacity=".6"></rect><rect x="180" y="100" width="30" height="4" rx="2" fill="var(--line2)" opacity=".6"></rect><path d="M200 75L96 44" stroke="var(--line2)" stroke-width="1.6" opacity=".55" stroke-dasharray="4 4"></path><path d="M200 75L96 106" stroke="var(--line2)" stroke-width="1.6" opacity=".55" stroke-dasharray="4 4"></path><path d="M200 75L304 44" stroke="var(--line2)" stroke-width="1.6" opacity=".55" stroke-dasharray="4 4"></path><path d="M200 75L304 106" stroke="var(--line2)" stroke-width="1.6" opacity=".55" stroke-dasharray="4 4"></path><circle cx="96" cy="44" r="9" fill="var(--glass3)" stroke="var(--line2)" stroke-width="1.6"></circle><circle cx="96" cy="106" r="9" fill="var(--glass3)" stroke="var(--line2)" stroke-width="1.6"></circle><circle cx="304" cy="44" r="9" fill="var(--glass3)" stroke="var(--line2)" stroke-width="1.6"></circle><circle cx="304" cy="106" r="9" fill="var(--glass3)" stroke="var(--line2)" stroke-width="1.6"></circle></svg>