<svg class="bthumb" viewBox="17.6 0.2 364.8 149.5" fill="none" aria-hidden="true" preserveAspectRatio="xMidYMid meet"><rect x="40" y="36" width="130" height="78" rx="7" fill="var(--glass3)" stroke="var(--line2)" stroke-width="1.6"></rect><path d="M40 52h130" stroke="var(--line2)" stroke-width="1.3" opacity=".75"></path><circle cx="51" cy="44" r="2.2" fill="var(--line2)" opacity=".8"></circle><circle cx="59" cy="44" r="2.2" fill="var(--line2)" opacity=".55"></circle><circle cx="67" cy="44" r="2.2" fill="var(--line2)" opacity=".4"></circle><rect x="54" y="68" width="88" height="4" rx="2" fill="var(--line2)" opacity=".6"></rect><rect x="54" y="77" width="66" height="4" rx="2" fill="var(--line2)" opacity=".6"></rect><rect x="54" y="86" width="74" height="4" rx="2" fill="var(--line2)" opacity=".6"></rect><rect x="230" y="36" width="130" height="78" rx="7" fill="var(--glass3)" stroke="var(--gold)" stroke-width="1.6"></rect><path d="M230 52h130" stroke="var(--gold)" stroke-width="1.3" opacity=".75"></path><circle cx="241" cy="44" r="2.2" fill="var(--gold)" opacity=".8"></circle><circle cx="249" cy="44" r="2.2" fill="var(--gold)" opacity=".55"></circle><circle cx="257" cy="44" r="2.2" fill="var(--gold)" opacity=".4"></circle><rect x="244" y="68" width="88" height="4" rx="2" fill="var(--line2)" opacity=".6"></rect><rect x="244" y="77" width="70" height="4" rx="2" fill="var(--gold)" opacity="1"></rect><rect x="244" y="86" width="58" height="4" rx="2" fill="var(--line2)" opacity=".6"></rect><circle cx="200" cy="75" r="15" fill="var(--glass3)" stroke="var(--gold)" stroke-width="1.6"></circle><path d="M194 69l12 12M206 69l-12 12" stroke="var(--gold)" stroke-width="1.8" stroke-linecap="round"></path></svg>